<svg width="247" height="40" viewBox="0 0 247 40" fill="none" xmlns="http://www.w3.org/2000/svg">
<path d="M15.704 4.92C17.784 4.92 19.624 5.224 21.224 5.832C22.856 6.44 24.392 7.352 25.832 8.568L22.088 13.032C21.096 12.264 20.12 11.688 19.16 11.304C18.2 10.92 17.176 10.728 16.088 10.728C13.848 10.728 12.072 11.672 10.76 13.56C9.48 15.448 8.84 18.36 8.84 22.296C8.84 26.168 9.48 29.048 10.76 30.936C12.072 32.792 13.88 33.72 16.184 33.72C17.4 33.72 18.504 33.496 19.496 33.048C20.488 32.568 21.56 31.896 22.712 31.032L26.216 35.544C24.968 36.792 23.448 37.816 21.656 38.616C19.896 39.416 17.944 39.816 15.8 39.816C12.728 39.816 10.056 39.144 7.784 37.8C5.512 36.456 3.736 34.472 2.456 31.848C1.208 29.192 0.584 26.008 0.584 22.296C0.584 18.68 1.224 15.56 2.504 12.936C3.816 10.312 5.608 8.328 7.88 6.984C10.184 5.608 12.792 4.92 15.704 4.92ZM37.1694 13.512V39H29.5854V13.512H37.1694ZM33.3294 0.0719976C34.6414 0.0719976 35.7134 0.487998 36.5454 1.32C37.4094 2.12 37.8414 3.144 37.8414 4.392C37.8414 5.64 37.4094 6.68 36.5454 7.512C35.7134 8.312 34.6414 8.712 33.3294 8.712C32.0174 8.712 30.9454 8.312 30.1134 7.512C29.2814 6.68 28.8654 5.64 28.8654 4.392C28.8654 3.144 29.2814 2.12 30.1134 1.32C30.9454 0.487998 32.0174 0.0719976 33.3294 0.0719976ZM52.1083 12.696C53.9323 12.696 55.6443 12.968 57.2443 13.512C58.8443 14.056 60.2523 14.824 61.4683 15.816L58.6843 20.088C56.6043 18.776 54.5083 18.12 52.3963 18.12C51.4043 18.12 50.6363 18.296 50.0923 18.648C49.5803 18.968 49.3243 19.432 49.3243 20.04C49.3243 20.52 49.4363 20.92 49.6603 21.24C49.9163 21.528 50.4123 21.832 51.1483 22.152C51.8843 22.472 53.0203 22.856 54.5563 23.304C57.2123 24.072 59.1803 25.08 60.4603 26.328C61.7723 27.544 62.4283 29.24 62.4283 31.416C62.4283 33.144 61.9323 34.648 60.9403 35.928C59.9483 37.176 58.5883 38.136 56.8603 38.808C55.1323 39.48 53.2123 39.816 51.1003 39.816C48.9563 39.816 46.9563 39.48 45.1003 38.808C43.2763 38.136 41.7243 37.208 40.4443 36.024L44.1403 31.896C46.2843 33.56 48.5403 34.392 50.9083 34.392C52.0603 34.392 52.9563 34.184 53.5963 33.768C54.2683 33.352 54.6043 32.76 54.6043 31.992C54.6043 31.384 54.4763 30.904 54.2203 30.552C53.9643 30.2 53.4683 29.88 52.7323 29.592C51.9963 29.272 50.8283 28.888 49.2283 28.44C46.7003 27.704 44.8123 26.68 43.5643 25.368C42.3163 24.056 41.6923 22.424 41.6923 20.472C41.6923 19 42.1083 17.688 42.9403 16.536C43.8043 15.352 45.0203 14.424 46.5883 13.752C48.1883 13.048 50.0283 12.696 52.1083 12.696ZM77.3754 12.696C79.1354 12.696 80.7194 12.952 82.1274 13.464C83.5354 13.976 84.8634 14.76 86.1114 15.816L82.8474 20.328C81.2474 19.112 79.6314 18.504 77.9994 18.504C76.3034 18.504 75.0234 19.128 74.1594 20.376C73.2954 21.624 72.8634 23.64 72.8634 26.424C72.8634 29.112 73.2954 31.016 74.1594 32.136C75.0234 33.256 76.2714 33.816 77.9034 33.816C78.7674 33.816 79.5514 33.688 80.2554 33.432C80.9594 33.144 81.8074 32.696 82.7994 32.088L86.1114 36.792C83.5834 38.808 80.7194 39.816 77.5194 39.816C74.9274 39.816 72.6874 39.272 70.7994 38.184C68.9114 37.064 67.4554 35.512 66.4314 33.528C65.4074 31.512 64.8954 29.16 64.8954 26.472C64.8954 23.784 65.4074 21.4 66.4314 19.32C67.4554 17.24 68.9114 15.624 70.7994 14.472C72.6874 13.288 74.8794 12.696 77.3754 12.696ZM99.4066 12.696C103.311 12.696 106.367 13.896 108.575 16.296C110.783 18.664 111.887 21.992 111.887 26.28C111.887 29 111.375 31.384 110.351 33.432C109.359 35.448 107.919 37.016 106.031 38.136C104.175 39.256 101.967 39.816 99.4066 39.816C95.5346 39.816 92.4786 38.632 90.2386 36.264C88.0306 33.864 86.9266 30.52 86.9266 26.232C86.9266 23.512 87.4226 21.144 88.4146 19.128C89.4386 17.08 90.8786 15.496 92.7346 14.376C94.6226 13.256 96.8466 12.696 99.4066 12.696ZM99.4066 18.264C97.8706 18.264 96.7186 18.92 95.9506 20.232C95.1826 21.512 94.7986 23.512 94.7986 26.232C94.7986 29.016 95.1666 31.048 95.9026 32.328C96.6706 33.608 97.8386 34.248 99.4066 34.248C100.943 34.248 102.095 33.608 102.863 32.328C103.631 31.016 104.015 29 104.015 26.28C104.015 23.496 103.631 21.464 102.863 20.184C102.127 18.904 100.975 18.264 99.4066 18.264ZM160.957 39H153.229L152.653 25.992C152.493 22.888 152.413 20.12 152.413 17.688C152.413 15.832 152.461 14.072 152.557 12.408L147.421 35.496H139.981L134.509 12.408C134.701 15.192 134.797 17.816 134.797 20.28C134.797 22.136 134.749 24.072 134.653 26.088L134.077 39H126.396L128.893 5.736H138.829L143.821 28.296L148.477 5.736H158.461L160.957 39ZM185.779 31.608C185.779 32.568 185.907 33.272 186.163 33.72C186.451 34.168 186.899 34.504 187.507 34.728L185.923 39.672C184.355 39.544 183.075 39.208 182.083 38.664C181.091 38.088 180.323 37.192 179.779 35.976C178.115 38.536 175.555 39.816 172.099 39.816C169.571 39.816 167.555 39.08 166.051 37.608C164.547 36.136 163.795 34.216 163.795 31.848C163.795 29.064 164.819 26.936 166.867 25.464C168.915 23.992 171.875 23.256 175.747 23.256H178.339V22.152C178.339 20.648 178.019 19.624 177.379 19.08C176.739 18.504 175.619 18.216 174.019 18.216C173.187 18.216 172.179 18.344 170.995 18.6C169.811 18.824 168.595 19.144 167.347 19.56L165.619 14.568C167.219 13.96 168.851 13.496 170.515 13.176C172.211 12.856 173.779 12.696 175.219 12.696C178.867 12.696 181.539 13.448 183.235 14.952C184.931 16.456 185.779 18.712 185.779 21.72V31.608ZM174.307 34.392C176.035 34.392 177.379 33.576 178.339 31.944V27.432H176.467C174.739 27.432 173.443 27.736 172.579 28.344C171.747 28.952 171.331 29.896 171.331 31.176C171.331 32.2 171.587 33 172.099 33.576C172.643 34.12 173.379 34.392 174.307 34.392ZM205.644 12.792C206.572 12.792 207.42 12.904 208.188 13.128L206.988 20.472C206.028 20.248 205.26 20.136 204.684 20.136C203.18 20.136 202.028 20.664 201.228 21.72C200.46 22.744 199.852 24.296 199.404 26.376V39H191.82V13.512H198.444L199.068 18.456C199.644 16.696 200.508 15.32 201.66 14.328C202.844 13.304 204.172 12.792 205.644 12.792ZM218.669 13.512V39H211.085V13.512H218.669ZM214.829 0.0719976C216.141 0.0719976 217.213 0.487998 218.045 1.32C218.909 2.12 219.341 3.144 219.341 4.392C219.341 5.64 218.909 6.68 218.045 7.512C217.213 8.312 216.141 8.712 214.829 8.712C213.517 8.712 212.445 8.312 211.613 7.512C210.781 6.68 210.365 5.64 210.365 4.392C210.365 3.144 210.781 2.12 211.613 1.32C212.445 0.487998 213.517 0.0719976 214.829 0.0719976ZM244.888 31.608C244.888 32.568 245.016 33.272 245.272 33.72C245.56 34.168 246.008 34.504 246.616 34.728L245.032 39.672C243.464 39.544 242.184 39.208 241.192 38.664C240.2 38.088 239.432 37.192 238.888 35.976C237.224 38.536 234.664 39.816 231.208 39.816C228.68 39.816 226.664 39.08 225.16 37.608C223.656 36.136 222.904 34.216 222.904 31.848C222.904 29.064 223.928 26.936 225.976 25.464C228.024 23.992 230.984 23.256 234.856 23.256H237.448V22.152C237.448 20.648 237.128 19.624 236.488 19.08C235.848 18.504 234.728 18.216 233.128 18.216C232.296 18.216 231.288 18.344 230.104 18.6C228.92 18.824 227.704 19.144 226.456 19.56L224.728 14.568C226.328 13.96 227.96 13.496 229.624 13.176C231.32 12.856 232.888 12.696 234.328 12.696C237.976 12.696 240.648 13.448 242.344 14.952C244.04 16.456 244.888 18.712 244.888 21.72V31.608ZM233.416 34.392C235.144 34.392 236.488 33.576 237.448 31.944V27.432H235.576C233.848 27.432 232.552 27.736 231.688 28.344C230.856 28.952 230.44 29.896 230.44 31.176C230.44 32.2 230.696 33 231.208 33.576C231.752 34.12 232.488 34.392 233.416 34.392Z" fill="black"/>
</svg>
